<?plantuml 1.2026.2?><svg xmlns="http://www.w3.org/2000/svg" xmlns:xlink="http://www.w3.org/1999/xlink" contentStyleType="text/css" data-diagram-type="CLASS" height="219px" preserveAspectRatio="none" style="width:1040px;height:219px;background:#FFFFFF;" version="1.1" viewBox="0 0 1040 219" width="1040px" zoomAndPan="magnify"><defs/><g><!--class PlayerController--><g class="entity" data-qualified-name="PlayerController" data-source-line="4" id="ent0002"><rect fill="#F1F1F1" height="96.8906" rx="2.5" ry="2.5" style="stroke:#181818;stroke-width:0.5;" width="234.6465" x="412.5" y="7"/><ellipse cx="469.2041" cy="23" fill="#ADD1B2" rx="11" ry="11" style="stroke:#181818;stroke-width:1;"/><path d="M472.1729,28.6406 Q471.5947,28.9375 470.9541,29.0781 Q470.3135,29.2344 469.6104,29.2344 Q467.1104,29.2344 465.7822,27.5938 Q464.4697,25.9375 464.4697,22.8125 Q464.4697,19.6875 465.7822,18.0313 Q467.1104,16.375 469.6104,16.375 Q470.3135,16.375 470.9541,16.5313 Q471.6104,16.6875 472.1729,16.9844 L472.1729,19.7031 Q471.5479,19.125 470.9541,18.8594 Q470.3604,18.5781 469.7354,18.5781 Q468.3916,18.5781 467.7041,19.6563 Q467.0166,20.7188 467.0166,22.8125 Q467.0166,24.9063 467.7041,25.9844 Q468.3916,27.0469 469.7354,27.0469 Q470.3604,27.0469 470.9541,26.7813 Q471.5479,26.5 472.1729,25.9219 L472.1729,28.6406 Z " fill="#000000"/><text fill="#000000" font-family="sans-serif" font-size="14" lengthAdjust="spacing" textLength="112.7383" x="489.7041" y="27.8467">PlayerController</text><line style="stroke:#181818;stroke-width:0.5;" x1="413.5" x2="646.1465" y1="39" y2="39"/><text fill="#000000" font-family="sans-serif" font-size="14" lengthAdjust="spacing" textLength="222.6465" x="418.5" y="55.9951">+PlayerMovements Movements</text><text fill="#000000" font-family="sans-serif" font-size="14" lengthAdjust="spacing" textLength="189.0547" x="418.5" y="72.292">+PlayerWeapons Weapons</text><text fill="#000000" font-family="sans-serif" font-size="14" lengthAdjust="spacing" textLength="151.6895" x="418.5" y="88.5889">+PlayerHealth Health</text><line style="stroke:#181818;stroke-width:0.5;" x1="413.5" x2="646.1465" y1="95.8906" y2="95.8906"/></g><!--class PlayerIdleState--><g class="entity" data-qualified-name="PlayerIdleState" data-source-line="11" id="ent0003"><rect fill="#F1F1F1" height="48" rx="2.5" ry="2.5" style="stroke:#181818;stroke-width:0.5;" width="138.1416" x="7" y="164"/><ellipse cx="22" cy="180" fill="#ADD1B2" rx="11" ry="11" style="stroke:#181818;stroke-width:1;"/><path d="M24.9688,185.6406 Q24.3906,185.9375 23.75,186.0781 Q23.1094,186.2344 22.4063,186.2344 Q19.9063,186.2344 18.5781,184.5938 Q17.2656,182.9375 17.2656,179.8125 Q17.2656,176.6875 18.5781,175.0313 Q19.9063,173.375 22.4063,173.375 Q23.1094,173.375 23.75,173.5313 Q24.4063,173.6875 24.9688,173.9844 L24.9688,176.7031 Q24.3438,176.125 23.75,175.8594 Q23.1563,175.5781 22.5313,175.5781 Q21.1875,175.5781 20.5,176.6563 Q19.8125,177.7188 19.8125,179.8125 Q19.8125,181.9063 20.5,182.9844 Q21.1875,184.0469 22.5313,184.0469 Q23.1563,184.0469 23.75,183.7813 Q24.3438,183.5 24.9688,182.9219 L24.9688,185.6406 Z " fill="#000000"/><text fill="#000000" font-family="sans-serif" font-size="14" lengthAdjust="spacing" textLength="106.1416" x="36" y="184.8467">PlayerIdleState</text><line style="stroke:#181818;stroke-width:0.5;" x1="8" x2="144.1416" y1="196" y2="196"/><line style="stroke:#181818;stroke-width:0.5;" x1="8" x2="144.1416" y1="204" y2="204"/></g><!--class PlayerMoveState--><g class="entity" data-qualified-name="PlayerMoveState" data-source-line="12" id="ent0004"><rect fill="#F1F1F1" height="48" rx="2.5" ry="2.5" style="stroke:#181818;stroke-width:0.5;" width="150.166" x="180" y="164"/><ellipse cx="195" cy="180" fill="#ADD1B2" rx="11" ry="11" style="stroke:#181818;stroke-width:1;"/><path d="M197.9688,185.6406 Q197.3906,185.9375 196.75,186.0781 Q196.1094,186.2344 195.4063,186.2344 Q192.9063,186.2344 191.5781,184.5938 Q190.2656,182.9375 190.2656,179.8125 Q190.2656,176.6875 191.5781,175.0313 Q192.9063,173.375 195.4063,173.375 Q196.1094,173.375 196.75,173.5313 Q197.4063,173.6875 197.9688,173.9844 L197.9688,176.7031 Q197.3438,176.125 196.75,175.8594 Q196.1563,175.5781 195.5313,175.5781 Q194.1875,175.5781 193.5,176.6563 Q192.8125,177.7188 192.8125,179.8125 Q192.8125,181.9063 193.5,182.9844 Q194.1875,184.0469 195.5313,184.0469 Q196.1563,184.0469 196.75,183.7813 Q197.3438,183.5 197.9688,182.9219 L197.9688,185.6406 Z " fill="#000000"/><text fill="#000000" font-family="sans-serif" font-size="14" lengthAdjust="spacing" textLength="118.166" x="209" y="184.8467">PlayerMoveState</text><line style="stroke:#181818;stroke-width:0.5;" x1="181" x2="329.166" y1="196" y2="196"/><line style="stroke:#181818;stroke-width:0.5;" x1="181" x2="329.166" y1="204" y2="204"/></g><!--class PlayerShotState--><g class="entity" data-qualified-name="PlayerShotState" data-source-line="13" id="ent0005"><rect fill="#F1F1F1" height="48" rx="2.5" ry="2.5" style="stroke:#181818;stroke-width:0.5;" width="144.4375" x="365" y="164"/><ellipse cx="380" cy="180" fill="#ADD1B2" rx="11" ry="11" style="stroke:#181818;stroke-width:1;"/><path d="M382.9688,185.6406 Q382.3906,185.9375 381.75,186.0781 Q381.1094,186.2344 380.4063,186.2344 Q377.9063,186.2344 376.5781,184.5938 Q375.2656,182.9375 375.2656,179.8125 Q375.2656,176.6875 376.5781,175.0313 Q377.9063,173.375 380.4063,173.375 Q381.1094,173.375 381.75,173.5313 Q382.4063,173.6875 382.9688,173.9844 L382.9688,176.7031 Q382.3438,176.125 381.75,175.8594 Q381.1563,175.5781 380.5313,175.5781 Q379.1875,175.5781 378.5,176.6563 Q377.8125,177.7188 377.8125,179.8125 Q377.8125,181.9063 378.5,182.9844 Q379.1875,184.0469 380.5313,184.0469 Q381.1563,184.0469 381.75,183.7813 Q382.3438,183.5 382.9688,182.9219 L382.9688,185.6406 Z " fill="#000000"/><text fill="#000000" font-family="sans-serif" font-size="14" lengthAdjust="spacing" textLength="112.4375" x="394" y="184.8467">PlayerShotState</text><line style="stroke:#181818;stroke-width:0.5;" x1="366" x2="508.4375" y1="196" y2="196"/><line style="stroke:#181818;stroke-width:0.5;" x1="366" x2="508.4375" y1="204" y2="204"/></g><!--class PlayerMovements--><g class="entity" data-qualified-name="PlayerMovements" data-source-line="16" id="ent0006"><rect fill="#F1F1F1" height="48" rx="2.5" ry="2.5" style="stroke:#181818;stroke-width:0.5;" width="157.0156" x="544.5" y="164"/><ellipse cx="559.5" cy="180" fill="#ADD1B2" rx="11" ry="11" style="stroke:#181818;stroke-width:1;"/><path d="M562.4688,185.6406 Q561.8906,185.9375 561.25,186.0781 Q560.6094,186.2344 559.9063,186.2344 Q557.4063,186.2344 556.0781,184.5938 Q554.7656,182.9375 554.7656,179.8125 Q554.7656,176.6875 556.0781,175.0313 Q557.4063,173.375 559.9063,173.375 Q560.6094,173.375 561.25,173.5313 Q561.9063,173.6875 562.4688,173.9844 L562.4688,176.7031 Q561.8438,176.125 561.25,175.8594 Q560.6563,175.5781 560.0313,175.5781 Q558.6875,175.5781 558,176.6563 Q557.3125,177.7188 557.3125,179.8125 Q557.3125,181.9063 558,182.9844 Q558.6875,184.0469 560.0313,184.0469 Q560.6563,184.0469 561.25,183.7813 Q561.8438,183.5 562.4688,182.9219 L562.4688,185.6406 Z " fill="#000000"/><text fill="#000000" font-family="sans-serif" font-size="14" lengthAdjust="spacing" textLength="125.0156" x="573.5" y="184.8467">PlayerMovements</text><line style="stroke:#181818;stroke-width:0.5;" x1="545.5" x2="700.5156" y1="196" y2="196"/><line style="stroke:#181818;stroke-width:0.5;" x1="545.5" x2="700.5156" y1="204" y2="204"/></g><!--class PlayerWeapons--><g class="entity" data-qualified-name="PlayerWeapons" data-source-line="17" id="ent0007"><rect fill="#F1F1F1" height="48" rx="2.5" ry="2.5" style="stroke:#181818;stroke-width:0.5;" width="140.2197" x="737" y="164"/><ellipse cx="752" cy="180" fill="#ADD1B2" rx="11" ry="11" style="stroke:#181818;stroke-width:1;"/><path d="M754.9688,185.6406 Q754.3906,185.9375 753.75,186.0781 Q753.1094,186.2344 752.4063,186.2344 Q749.9063,186.2344 748.5781,184.5938 Q747.2656,182.9375 747.2656,179.8125 Q747.2656,176.6875 748.5781,175.0313 Q749.9063,173.375 752.4063,173.375 Q753.1094,173.375 753.75,173.5313 Q754.4063,173.6875 754.9688,173.9844 L754.9688,176.7031 Q754.3438,176.125 753.75,175.8594 Q753.1563,175.5781 752.5313,175.5781 Q751.1875,175.5781 750.5,176.6563 Q749.8125,177.7188 749.8125,179.8125 Q749.8125,181.9063 750.5,182.9844 Q751.1875,184.0469 752.5313,184.0469 Q753.1563,184.0469 753.75,183.7813 Q754.3438,183.5 754.9688,182.9219 L754.9688,185.6406 Z " fill="#000000"/><text fill="#000000" font-family="sans-serif" font-size="14" lengthAdjust="spacing" textLength="108.2197" x="766" y="184.8467">PlayerWeapons</text><line style="stroke:#181818;stroke-width:0.5;" x1="738" x2="876.2197" y1="196" y2="196"/><line style="stroke:#181818;stroke-width:0.5;" x1="738" x2="876.2197" y1="204" y2="204"/></g><!--class PlayerHealth--><g class="entity" data-qualified-name="PlayerHealth" data-source-line="18" id="ent0008"><rect fill="#F1F1F1" height="48" rx="2.5" ry="2.5" style="stroke:#181818;stroke-width:0.5;" width="121.5371" x="912" y="164"/><ellipse cx="927" cy="180" fill="#ADD1B2" rx="11" ry="11" style="stroke:#181818;stroke-width:1;"/><path d="M929.9688,185.6406 Q929.3906,185.9375 928.75,186.0781 Q928.1094,186.2344 927.4063,186.2344 Q924.9063,186.2344 923.5781,184.5938 Q922.2656,182.9375 922.2656,179.8125 Q922.2656,176.6875 923.5781,175.0313 Q924.9063,173.375 927.4063,173.375 Q928.1094,173.375 928.75,173.5313 Q929.4063,173.6875 929.9688,173.9844 L929.9688,176.7031 Q929.3438,176.125 928.75,175.8594 Q928.1563,175.5781 927.5313,175.5781 Q926.1875,175.5781 925.5,176.6563 Q924.8125,177.7188 924.8125,179.8125 Q924.8125,181.9063 925.5,182.9844 Q926.1875,184.0469 927.5313,184.0469 Q928.1563,184.0469 928.75,183.7813 Q929.3438,183.5 929.9688,182.9219 L929.9688,185.6406 Z " fill="#000000"/><text fill="#000000" font-family="sans-serif" font-size="14" lengthAdjust="spacing" textLength="89.5371" x="941" y="184.8467">PlayerHealth</text><line style="stroke:#181818;stroke-width:0.5;" x1="913" x2="1032.5371" y1="196" y2="196"/><line style="stroke:#181818;stroke-width:0.5;" x1="913" x2="1032.5371" y1="204" y2="204"/></g><!--link PlayerController to PlayerMovements--><g class="link" data-entity-1="ent0002" data-entity-2="ent0006" data-link-type="dependency" data-source-line="21" id="lnk9"><path codeLine="21" d="M564.1,104.35 C578.51,124.58 591.1579,142.3138 602.8879,158.7738" fill="none" id="PlayerController-to-PlayerMovements" style="stroke:#181818;stroke-width:1;"/><polygon fill="#181818" points="606.37,163.66,604.4043,154.0093,603.4683,159.5882,597.8894,158.6521,606.37,163.66" style="stroke:#181818;stroke-width:1;"/></g><!--link PlayerController to PlayerWeapons--><g class="link" data-entity-1="ent0002" data-entity-2="ent0007" data-link-type="dependency" data-source-line="22" id="lnk10"><path codeLine="22" d="M631.18,104.17 C674.45,124.55 717.5521,144.8631 752.6421,161.3931" fill="none" id="PlayerController-to-PlayerWeapons" style="stroke:#181818;stroke-width:1;"/><polygon fill="#181818" points="758.07,163.95,751.6328,156.496,753.5468,161.8192,748.2235,163.7332,758.07,163.95" style="stroke:#181818;stroke-width:1;"/></g><!--link PlayerController to PlayerHealth--><g class="link" data-entity-1="ent0002" data-entity-2="ent0008" data-link-type="dependency" data-source-line="23" id="lnk11"><path codeLine="23" d="M647.53,91.11 C719.07,112.17 812.31,139.63 895,164 C900.42,165.6 900.2941,165.5659 905.9341,167.2259" fill="none" id="PlayerController-to-PlayerHealth" style="stroke:#181818;stroke-width:1;"/><polygon fill="#181818" points="911.69,168.92,904.1856,162.5416,906.8934,167.5082,901.9268,170.2161,911.69,168.92" style="stroke:#181818;stroke-width:1;"/></g><!--link PlayerController to PlayerIdleState--><g class="link" data-entity-1="ent0002" data-entity-2="ent0003" data-link-type="dependency" data-source-line="25" id="lnk12"><path codeLine="25" d="M412.49,90.28 C327.63,114.67 221.6866,145.1227 150.7766,165.5027" fill="none" id="PlayerController-to-PlayerIdleState" style="stroke:#181818;stroke-width:1;"/><polygon fill="#181818" points="145.01,167.16,154.7647,168.5184,149.8155,165.7789,152.5549,160.8296,145.01,167.16" style="stroke:#181818;stroke-width:1;"/></g><!--link PlayerController to PlayerMoveState--><g class="link" data-entity-1="ent0002" data-entity-2="ent0004" data-link-type="dependency" data-source-line="26" id="lnk13"><path codeLine="26" d="M429.55,104.17 C386.59,124.55 343.8305,144.8475 309.0005,161.3775" fill="none" id="PlayerController-to-PlayerMoveState" style="stroke:#181818;stroke-width:1;"/><polygon fill="#181818" points="303.58,163.95,313.4258,163.7049,308.0971,161.8062,309.9958,156.4775,303.58,163.95" style="stroke:#181818;stroke-width:1;"/></g><!--link PlayerController to PlayerShotState--><g class="link" data-entity-1="ent0002" data-entity-2="ent0005" data-link-type="dependency" data-source-line="27" id="lnk14"><path codeLine="27" d="M495.9,104.35 C481.49,124.58 468.8421,142.3138 457.1121,158.7738" fill="none" id="PlayerController-to-PlayerShotState" style="stroke:#181818;stroke-width:1;"/><polygon fill="#181818" points="453.63,163.66,462.1106,158.6521,456.5317,159.5882,455.5957,154.0093,453.63,163.66" style="stroke:#181818;stroke-width:1;"/></g><?plantuml-src AyxEp2j8B4hCLKZEIImkTYmfASfCAYr9zKpEpmlEh4fLCE3YKbS8o4ciJ2ropiyhAShFoKajKdZRkENrl1blkfOel5amzStS6LnWtPZgghaKW40RAk6RNvQQcvfNKgm0Pw78XwSc5kJd5Ij0QHGvZzJ4d98C1GZ5LGjorPlcnhVDSrvFNgAW4LoIM9Ag491OKf9QbAU9uXhFb9nKi3IAACW1cAB16Vab456GyRktlErVyxgbvstN3g0b6DeXxaSMXRaRMGpgOA1vhxOqlDhSel2cPGampBWmWafNrmx3S3oAO7RXKGAp6eyIHE0GS0z1HV2W0m00?></g></svg>